<svg xmlns="http://www.w3.org/2000/svg" width="24" height="24" viewBox="0 0 24 24" fill="none">
  <path d="M12 7.5C11.11 7.5 10.24 7.76392 9.49993 8.25839C8.75991 8.75285 8.18314 9.45566 7.84254 10.2779C7.50195 11.1002 7.41283 12.005 7.58647 12.8779C7.7601 13.7508 8.18868 14.5526 8.81802 15.182C9.44736 15.8113 10.2492 16.2399 11.1221 16.4135C11.995 16.5872 12.8998 16.4981 13.7221 16.1575C14.5443 15.8169 15.2471 15.2401 15.7416 14.5001C16.2361 13.76 16.5 12.89 16.5 12C16.4987 10.8069 16.0241 9.66312 15.1805 8.8195C14.3369 7.97588 13.1931 7.50134 12 7.5ZM12 15C11.4067 15 10.8266 14.8241 10.3333 14.4944C9.83994 14.1648 9.45542 13.6962 9.22836 13.1481C9.0013 12.5999 8.94189 11.9967 9.05764 11.4147C9.1734 10.8328 9.45912 10.2982 9.87868 9.87868C10.2982 9.45912 10.8328 9.1734 11.4147 9.05764C11.9967 8.94189 12.5999 9.0013 13.1481 9.22836C13.6962 9.45542 14.1648 9.83994 14.4944 10.3333C14.8241 10.8266 15 11.4067 15 12C14.9991 12.7954 14.6827 13.5579 14.1203 14.1203C13.5579 14.6827 12.7954 14.9991 12 15ZM16.125 2.625H7.875C6.4831 2.62659 5.14867 3.18022 4.16444 4.16444C3.18022 5.14867 2.62659 6.4831 2.625 7.875V16.125C2.62659 17.5169 3.18022 18.8513 4.16444 19.8356C5.14867 20.8198 6.4831 21.3734 7.875 21.375H16.125C17.5169 21.3734 18.8513 20.8198 19.8356 19.8356C20.8198 18.8513 21.3734 17.5169 21.375 16.125V7.875C21.3734 6.4831 20.8198 5.14867 19.8356 4.16444C18.8513 3.18022 17.5169 2.62659 16.125 2.625ZM19.875 16.125C19.8739 17.1192 19.4784 18.0724 18.7754 18.7754C18.0724 19.4784 17.1192 19.8739 16.125 19.875H7.875C6.88078 19.8739 5.9276 19.4784 5.22458 18.7754C4.52156 18.0724 4.12612 17.1192 4.125 16.125V7.875C4.12612 6.88078 4.52156 5.9276 5.22458 5.22458C5.9276 4.52156 6.88078 4.12612 7.875 4.125H16.125C17.1192 4.12612 18.0724 4.52156 18.7754 5.22458C19.4784 5.9276 19.8739 6.88078 19.875 7.875V16.125ZM18 7.125C18 7.3475 17.934 7.56501 17.8104 7.75002C17.6868 7.93502 17.5111 8.07922 17.3055 8.16436C17.1 8.24951 16.8738 8.27179 16.6555 8.22838C16.4373 8.18498 16.2368 8.07783 16.0795 7.9205C15.9222 7.76316 15.815 7.56271 15.7716 7.34448C15.7282 7.12625 15.7505 6.90005 15.8356 6.69448C15.9208 6.48891 16.065 6.31321 16.25 6.1896C16.435 6.06598 16.6525 6 16.875 6C17.1734 6 17.4595 6.11853 17.6705 6.3295C17.8815 6.54048 18 6.82663 18 7.125Z" fill="#EBEBF5" fill-opacity="0.6"/>
</svg>
