<svg xmlns="http://www.w3.org/2000/svg" width="20" height="20" viewBox="0 0 20 20" fill="none">
  <path d="M16.7069 9.80079L7.95694 19.1758C7.86416 19.2752 7.74149 19.3417 7.60752 19.3651C7.47355 19.3885 7.3356 19.3676 7.21461 19.3055C7.09361 19.2434 6.99617 19.1435 6.93706 19.0211C6.87796 18.8986 6.86041 18.7602 6.88709 18.6268L8.03288 12.898L3.53053 11.2096C3.43431 11.1735 3.34846 11.1143 3.28059 11.0371C3.21273 10.96 3.16493 10.8673 3.14145 10.7672C3.11796 10.6672 3.11951 10.5629 3.14595 10.4636C3.17239 10.3643 3.22291 10.273 3.29303 10.1979L12.043 0.822897C12.1358 0.723446 12.2585 0.656972 12.3925 0.633564C12.5265 0.610156 12.6644 0.631091 12.7854 0.693192C12.9064 0.755293 13.0039 0.85517 13.063 0.977668C13.1221 1.10017 13.1396 1.2386 13.1129 1.37196L11.9671 7.10087L16.4694 8.78915C16.5657 8.82522 16.6515 8.88446 16.7194 8.96163C16.7872 9.03879 16.835 9.1315 16.8585 9.23155C16.882 9.33159 16.8805 9.43588 16.854 9.53519C16.8276 9.63449 16.7771 9.72575 16.7069 9.80087V9.80079Z" fill="black"/>
</svg>
