<svg xmlns="http://www.w3.org/2000/svg" width="24" height="24" viewBox="0 0 24 24" fill="none">
  <path d="M21.7947 20.2046L17.9812 16.3911C19.387 14.5807 20.05 12.3027 19.8352 10.0207C19.6204 7.7387 18.5441 5.62435 16.8252 4.10807C15.1064 2.59179 12.8742 1.78758 10.5833 1.85917C8.29235 1.93076 6.1148 2.87276 4.49397 4.4934C2.87314 6.11404 1.93088 8.29148 1.85902 10.5824C1.78716 12.8734 2.5911 15.1056 4.10718 16.8246C5.62326 18.5436 7.73749 19.6203 10.0194 19.8353C12.3014 20.0503 14.5795 19.3876 16.39 17.982L20.2037 21.7956C20.3078 21.9014 20.4319 21.9856 20.5688 22.0433C20.7056 22.101 20.8526 22.131 21.0011 22.1316C21.1496 22.1322 21.2967 22.1034 21.434 22.0468C21.5714 21.9903 21.6961 21.9071 21.8011 21.8021C21.9061 21.6971 21.9893 21.5723 22.0459 21.435C22.1024 21.2977 22.1312 21.1505 22.1306 21.002C22.13 20.8535 22.1 20.7066 22.0424 20.5697C21.9847 20.4329 21.9005 20.3088 21.7946 20.2046H21.7947ZM4.12473 10.875C4.12473 9.53997 4.52061 8.23493 5.26231 7.1249C6.00401 6.01487 7.05821 5.1497 8.29161 4.63881C9.52501 4.12792 10.8822 3.99425 12.1916 4.2547C13.501 4.51515 14.7037 5.15802 15.6477 6.10203C16.5917 7.04603 17.2346 8.24877 17.495 9.55814C17.7555 10.8675 17.6218 12.2247 17.1109 13.4581C16.6 14.6915 15.7349 15.7457 14.6248 16.4874C13.5148 17.2291 12.2098 17.625 10.8747 17.625C9.08513 17.623 7.36941 16.9112 6.10398 15.6457C4.83854 14.3803 4.12674 12.6646 4.12473 10.875Z" fill="#8E8E93"/>
</svg>
