<svg xmlns="http://www.w3.org/2000/svg" width="24" height="24" viewBox="0 0 24 24" fill="none">
  <path d="M21.6803 2.97513C21.4736 2.79669 21.222 2.67819 20.9528 2.63246C20.6837 2.58674 20.4071 2.61553 20.1531 2.71573L2.85087 9.51307C2.54934 9.63158 2.29428 9.84453 2.12385 10.1201C1.95342 10.3956 1.87678 10.7189 1.9054 11.0416C1.93402 11.3644 2.06636 11.6691 2.28262 11.9104C2.49888 12.1516 2.78744 12.3164 3.10512 12.3799L7.50002 13.2591V18.7485C7.49976 19.0453 7.58758 19.3354 7.75235 19.5823C7.91712 19.8291 8.15144 20.0215 8.42562 20.1351C8.69981 20.2487 9.00154 20.2783 9.29259 20.2203C9.58364 20.1623 9.85094 20.0192 10.0606 19.8092L12.4929 17.377L16.1844 20.6254C16.4561 20.8668 16.8069 21.0003 17.1703 21.0008C17.3283 21.0006 17.4853 20.9758 17.6356 20.927C17.8835 20.8484 18.1065 20.7061 18.2823 20.5144C18.458 20.3227 18.5805 20.0883 18.6373 19.8345L22.1636 4.4471C22.2251 4.18101 22.2125 3.90319 22.1273 3.64374C22.0421 3.38428 21.8875 3.1531 21.6803 2.97523V2.97513ZM17.1752 19.4993L9.45096 12.7019L20.5739 4.66873L17.1752 19.4993Z" fill="#EBEBF5" fill-opacity="0.6"/>
</svg>
