<svg xmlns="http://www.w3.org/2000/svg" width="24" height="24" viewBox="0 0 24 24" fill="none">
  <path d="M23.0303 7.28039L20.2457 10.065C20.1709 12.8172 19.1204 15.5013 17.3375 17.472C15.2491 19.7801 12.3661 21 9.00001 21C5.72701 21 4.03989 19.3506 3.96967 19.2804C3.87372 19.1845 3.8056 19.0643 3.77256 18.9327C3.73951 18.8011 3.74279 18.663 3.78203 18.5331C3.82128 18.4032 3.89502 18.2864 3.9954 18.1951C4.09579 18.1039 4.21906 18.0415 4.35208 18.0148C5.15251 17.8526 7.13935 17.2212 7.98489 16.083C7.07836 15.5603 6.27339 14.8786 5.60851 14.0705C3.25614 11.214 3.30601 7.62426 3.76211 5.11589C3.78784 4.97429 3.85378 4.84308 3.95205 4.73792C4.05031 4.63277 4.17676 4.55811 4.3163 4.52285C4.45584 4.4876 4.60257 4.49324 4.73899 4.5391C4.87541 4.58495 4.99576 4.6691 5.08567 4.78148C5.11145 4.81354 7.57642 7.83351 11.25 8.82023V8.25023C11.2579 7.04932 11.7424 5.90071 12.5969 5.05689C13.4515 4.21308 14.6061 3.74312 15.807 3.75033C16.5871 3.76111 17.3511 3.97407 18.0243 4.36838C18.6975 4.7627 19.257 5.32489 19.6479 6.00004H22.5C22.6483 6.00004 22.7934 6.04402 22.9167 6.12643C23.04 6.20884 23.1362 6.32598 23.1929 6.46303C23.2497 6.60008 23.2646 6.75088 23.2356 6.89637C23.2067 7.04186 23.1352 7.1755 23.0303 7.28039Z" fill="#EBEBF5" fill-opacity="0.6"/>
</svg>
