<svg xmlns="http://www.w3.org/2000/svg" width="24" height="24" viewBox="0 0 24 24" fill="none">
  <path d="M21.9684 6.54354C21.8795 6.1986 21.7098 5.87975 21.4734 5.6133C21.237 5.34686 20.9406 5.14044 20.6087 5.0111C17.3959 3.77651 12.2793 3.78682 12 3.78832C11.7208 3.78607 6.60422 3.77651 3.39141 5.0111C3.05949 5.14042 2.76309 5.34681 2.52665 5.61325C2.29021 5.87968 2.12051 6.19852 2.03156 6.54345C1.78903 7.47448 1.5 9.17689 1.5 12.0001C1.5 14.8233 1.78903 16.5256 2.03156 17.4566C2.12049 17.8015 2.29017 18.1204 2.52659 18.3868C2.76301 18.6533 3.05941 18.8597 3.39131 18.989C6.46688 20.1709 11.2871 20.212 11.9382 20.212H12.0618C12.7133 20.212 17.5332 20.1708 20.6086 18.989C20.9405 18.8597 21.2369 18.6533 21.4734 18.3869C21.7098 18.1205 21.8795 17.8016 21.9684 17.4567C22.211 16.5257 22.5 14.8233 22.5 12.0001C22.5 9.17689 22.211 7.47457 21.9684 6.54354ZM15.208 12.3121L10.708 15.3121C10.6516 15.3497 10.5859 15.3713 10.5181 15.3746C10.4503 15.3779 10.3829 15.3627 10.3231 15.3307C10.2632 15.2987 10.2132 15.251 10.1783 15.1928C10.1434 15.1346 10.125 15.0679 10.125 15.0001V9.00007C10.125 8.9322 10.1434 8.86559 10.1783 8.80737C10.2132 8.74914 10.2632 8.70147 10.3231 8.66944C10.3829 8.63742 10.4503 8.62224 10.5181 8.62552C10.5859 8.6288 10.6516 8.65042 10.708 8.68807L15.208 11.6881C15.2594 11.7223 15.3015 11.7687 15.3306 11.8231C15.3598 11.8776 15.375 11.9383 15.375 12.0001C15.375 12.0618 15.3598 12.1226 15.3306 12.177C15.3015 12.2314 15.2594 12.2778 15.208 12.3121Z" fill="#EBEBF5" fill-opacity="0.6"/>
</svg>
